<svg width="16" height="10" viewBox="0 0 16 10" fill="none" xmlns="http://www.w3.org/2000/svg">
<path d="M9.42186 0.126413C12.7547 1.81626 15.7713 4.47005 15.8519 4.59025C16.01 4.7128 16.01 4.833 16.01 5.01448C16.01 5.13468 15.9294 5.31615 15.8519 5.43635C15.7713 5.55655 12.6772 8.21034 9.42186 9.90019C9.18314 10.0204 8.86691 10.0204 8.55068 9.96146C8.31196 9.84127 8.07323 9.65979 8.07323 9.41704V7.18512C8.07323 7.18512 1.16887 6.88344 0.849543 6.70197C0.452705 6.34137 0.136475 5.61783 0.136475 4.9532C0.136475 4.28857 0.452705 3.62631 0.849543 3.38355C1.16887 3.26335 8.07323 2.84148 8.07323 2.84148V0.609563C8.07323 0.36681 8.23135 0.187691 8.55068 0.0651358C8.7863 -0.0550627 9.10563 0.00621461 9.42186 0.126413Z" fill="#111111"/>
</svg>
