<svg width="23" height="20" viewBox="0 0 23 20" fill="none" xmlns="http://www.w3.org/2000/svg">
<path d="M0.944445 0C0.424262 0 0 0.449219 0 1C0 1.55078 0.424262 2 0.944445 2H3.03993L5.5191 12.5C5.72938 13.3906 6.48199 14 7.34896 14H18.1806C19.0328 14 19.7559 13.4023 19.9809 12.5312L22.4306 3H6.61111L7.08333 5H19.9809L18.1806 12H7.34896L4.86979 1.5C4.65951 0.609375 3.9069 0 3.03993 0H0.944445ZM17 14C15.4468 14 14.1667 15.3555 14.1667 17C14.1667 18.6445 15.4468 20 17 20C18.5532 20 19.8333 18.6445 19.8333 17C19.8333 15.3555 18.5532 14 17 14ZM8.5 14C6.94683 14 5.66667 15.3555 5.66667 17C5.66667 18.6445 6.94683 20 8.5 20C10.0532 20 11.3333 18.6445 11.3333 17C11.3333 15.3555 10.0532 14 8.5 14ZM8.5 16C9.03125 16 9.44445 16.4375 9.44445 17C9.44445 17.5625 9.03125 18 8.5 18C7.96875 18 7.55556 17.5625 7.55556 17C7.55556 16.4375 7.96875 16 8.5 16ZM17 16C17.5313 16 17.9444 16.4375 17.9444 17C17.9444 17.5625 17.5313 18 17 18C16.4688 18 16.0556 17.5625 16.0556 17C16.0556 16.4375 16.4688 16 17 16Z" fill="#222222"/>
</svg>
