<svg width="15" height="14" viewBox="0 0 15 14" fill="none" xmlns="http://www.w3.org/2000/svg">
<path fill-rule="evenodd" clip-rule="evenodd" d="M0.875 3.8957C0.875 1.74416 2.61915 0 4.7707 0H10.4793C12.6308 0 14.375 1.74415 14.375 3.8957V9.6043C14.375 11.7558 12.6309 13.5 10.4793 13.5H4.7707C2.61916 13.5 0.875 11.7559 0.875 9.6043V3.8957ZM2.09698 4.01189V9.48811C2.09698 11.0312 3.34607 12.278 4.88689 12.278H10.3631C11.9062 12.278 13.153 11.0289 13.153 9.48811V4.01189C13.153 2.46876 11.9039 1.22198 10.3631 1.22198H4.88689C3.34376 1.22198 2.09698 2.47107 2.09698 4.01189ZM7.625 10.1832C5.7289 10.1832 4.19181 8.6461 4.19181 6.75C4.19181 4.8539 5.7289 3.31681 7.625 3.31681C9.5211 3.31681 11.0582 4.8539 11.0582 6.75C11.0582 8.6461 9.5211 10.1832 7.625 10.1832ZM7.625 8.96121C8.84622 8.96121 9.83621 7.97122 9.83621 6.75C9.83621 5.52878 8.84622 4.53879 7.625 4.53879C6.40378 4.53879 5.41379 5.52878 5.41379 6.75C5.41379 7.97122 6.40378 8.96121 7.625 8.96121ZM11.1746 3.9569C10.7246 3.9569 10.3599 3.59216 10.3599 3.14224C10.3599 2.69232 10.7246 2.32759 11.1746 2.32759C11.6245 2.32759 11.9892 2.69232 11.9892 3.14224C11.9892 3.59216 11.6245 3.9569 11.1746 3.9569Z" fill="white"/>
</svg>
