<svg width="14" height="14" viewBox="0 0 14 14" fill="none" xmlns="http://www.w3.org/2000/svg">
<path d="M7.25 0C3.52124 0 0.5 3.02124 0.5 6.75C0.5 9.61084 2.27979 12.052 4.79126 13.0364C4.73193 12.5024 4.677 11.6829 4.81323 11.0984C4.93628 10.5732 5.60425 7.74316 5.60425 7.74316C5.60425 7.74316 5.4043 7.33887 5.4043 6.74121C5.4043 5.80298 5.94702 5.10205 6.62378 5.10205C7.19946 5.10205 7.47852 5.53491 7.47852 6.05347C7.47852 6.63354 7.10938 7.49927 6.91821 8.30127C6.76001 8.97363 7.25659 9.52075 7.91797 9.52075C9.11768 9.52075 10.0405 8.25513 10.0405 6.4292C10.0405 4.81421 8.88037 3.68481 7.22144 3.68481C5.30102 3.68481 4.17383 5.12402 4.17383 6.61377C4.17383 7.19385 4.39795 7.81567 4.677 8.15405C4.73193 8.21997 4.73853 8.2793 4.72315 8.34741C4.67041 8.56055 4.55835 9.01978 4.53638 9.11206C4.50562 9.2373 4.4375 9.26367 4.31006 9.20215C3.46631 8.81104 2.93897 7.57837 2.93897 6.5874C2.93897 4.45825 4.48584 2.50269 7.39941 2.50269C9.7417 2.50269 11.561 4.17041 11.561 6.40283C11.561 8.72754 10.0933 10.5996 8.05859 10.5996C7.37524 10.5996 6.73145 10.2458 6.51172 9.82617C6.51172 9.82617 6.17334 11.1138 6.08984 11.4302C5.93823 12.0168 5.52734 12.7507 5.25049 13.199C5.8833 13.3945 6.55347 13.5 7.25 13.5C10.9788 13.5 14 10.4788 14 6.75C14 3.02124 10.9788 0 7.25 0Z" fill="white"/>
</svg>
