<svg width="20" height="20" viewBox="0 0 20 20" fill="none" xmlns="http://www.w3.org/2000/svg">
<path d="M19.846 0.0838119C19.7225 -0.0130963 19.5537 -0.0271637 19.4146 0.0478619L0.206563 10.4514C0.0674423 10.5264 -0.0138417 10.6781 0.00178985 10.8359C0.0158582 10.9938 0.122152 11.1282 0.272215 11.1767L5.7323 12.9585L5.20396 18.3635C5.18676 18.5354 5.28211 18.698 5.43999 18.7652C5.49001 18.7886 5.54472 18.7996 5.59787 18.7996C5.70885 18.7996 5.81827 18.7527 5.89487 18.6652L9.33849 14.7748L14.5235 19.8859C14.5985 19.9594 14.6985 20 14.8017 20C14.8377 20 14.8736 19.9937 14.9096 19.9844C15.0456 19.9469 15.1519 19.8374 15.1862 19.6999L19.9882 0.493327C20.0258 0.34015 19.971 0.179157 19.846 0.0838119ZM6.53576 12.8851L14.3437 6.57197L9.02273 13.9386L6.11058 17.2256L6.53576 12.8851Z" fill="white"/>
</svg>
