<svg width="14" height="12" viewBox="0 0 14 12" fill="none" xmlns="http://www.w3.org/2000/svg">
<path fill-rule="evenodd" clip-rule="evenodd" d="M13.875 1.56444C13.3783 1.78381 12.8445 1.93344 12.2843 1.99925C12.8558 1.65669 13.2951 1.11388 13.5015 0.467563C12.9677 0.78425 12.3743 1.01488 11.7437 1.14031C11.238 0.602 10.5174 0.263375 9.72206 0.263375C8.19263 0.263375 6.95119 1.50481 6.95119 3.03425C6.95119 3.25194 6.97537 3.46288 7.02375 3.66481C4.72144 3.55063 2.68012 2.44756 1.3155 0.77075C1.07587 1.17969 0.93975 1.65669 0.93975 2.16406C0.93975 3.12425 1.42744 3.9725 2.17219 4.46919C1.71769 4.45344 1.29131 4.33081 0.917813 4.12156C0.917813 4.13506 0.917813 4.14575 0.917813 4.157C0.917813 5.49969 1.87125 6.62019 3.13912 6.87275C2.90625 6.93631 2.66213 6.97175 2.40956 6.97175C2.23181 6.97175 2.05575 6.95431 1.88869 6.92113C2.24025 8.02194 3.26456 8.82181 4.47506 8.846C3.52781 9.5885 2.3325 10.0301 1.0365 10.0301C0.812063 10.0301 0.592688 10.0171 0.375 9.99069C1.60125 10.7776 3.05588 11.2366 4.62019 11.2366C9.71531 11.2366 12.5019 7.01563 12.5019 3.35488C12.5019 3.23619 12.4974 3.11525 12.4929 2.99656C13.0335 2.60563 13.5037 2.11794 13.875 1.56444Z" fill="white"/>
</svg>
