<svg width="15" height="12" viewBox="0 0 15 12" fill="none" xmlns="http://www.w3.org/2000/svg">
<path d="M7.6875 0.125C9.80587 0.125 11.6779 0.344938 12.8203 0.512C13.7653 0.650375 14.5275 1.36194 14.7013 2.30469C14.8504 3.10906 15 4.28469 15 5.75C15 7.21531 14.8481 8.39094 14.7013 9.19531C14.5275 10.1381 13.7653 10.8519 12.8203 10.988C11.6734 11.1551 9.79463 11.375 7.6875 11.375C5.58038 11.375 3.70163 11.1551 2.55469 10.988C1.60969 10.8519 0.8475 10.1381 0.673687 9.19531C0.526875 8.39319 0.375 7.21981 0.375 5.75C0.375 4.28019 0.526875 3.10681 0.673687 2.30469C0.8475 1.36194 1.60969 0.650375 2.55469 0.512C3.69712 0.344938 5.56913 0.125 7.6875 0.125ZM6 2.53306V8.96694L6.84375 8.49219L10.7812 6.24219L11.625 5.75L10.7812 5.25781L6.84375 3.00781L6 2.53306Z" fill="white"/>
</svg>
